<svg xmlns="http://www.w3.org/2000/svg" width="80mm" height="80mm" viewBox="0 0 226.77 226.77"><defs><style>.cls-1{fill:#c7e1c1;}.cls-2{fill:#f299c1;}.cls-3{fill:#991636;}</style></defs><g id="Layer_8" data-name="Layer 8"><path class="cls-1" d="M33.34,126.16a88.47,88.47,0,0,1,3.23-11.73H60c-.1.66-.18,1.32-.3,2q-.57,3.3-1.56,7.36c-1.71,7-.08,45.36,15.44,33.29,7-5.46.94-30.78,8.57-30.31,4.39.28.76,19.23,5.35,19.42,15.65.61,18.61-15.56,18.75-31.77h9c-.69,7.2-.67,13.42,3.38,13.42,10.51,0,10.24-6,8.64-13.42h63.45a12,12,0,0,1,12,12v24.76a12,12,0,0,1-12,12h-156a12,12,0,0,1-12-12V126.43a11.83,11.83,0,0,1,.51-3.44C24.54,131.17,29.11,146.61,33.34,126.16Z"/><path class="cls-2" d="M147.17,82.28c6.46,1.63.92,16,7.73,13.06,6-2.65,1.87-20,15.51-21.75,9.06-1.16,18.33-7.49,20.2-10h.14a12,12,0,0,1,12,12v24.77a12,12,0,0,1-12,12H126.83A56.1,56.1,0,0,1,125.05,102C124.7,91.11,133.78,78.9,147.17,82.28Z"/><path class="cls-2" d="M60.24,112.35H37.35C46.82,88,62.83,87.86,60.24,112.35Z"/><path class="cls-2" d="M107.77,82.33c4.33-.52,9.51,9.8,8.75,20.2-.22,3-.66,6.48-1,9.82h-9.26c0-1.87,0-3.74-.1-5.56C105.74,93.89,104.5,82.72,107.77,82.33Z"/><path class="cls-2" d="M127.3,114.43h-12c.07-.69.14-1.39.22-2.08h11.33C127,113.05,127.16,113.74,127.3,114.43Z"/><path class="cls-2" d="M27.62,64.6c9-3.08,19.32-.78,60.56-1.67,19.16-.42,102.78-.07,102.78-.07a1.44,1.44,0,0,1-.35.72H34.71a12,12,0,0,0-12,12v24.77a12,12,0,0,0,12,12h2.64c-.26.67-.53,1.36-.78,2.08H34.71A12,12,0,0,0,23.22,123a26,26,0,0,1-.38-3.3C22.23,100.78,18.93,67.58,27.62,64.6Z"/><path class="cls-2" d="M106.24,114.43H60c.1-.72.18-1.41.25-2.08h46C106.24,113,106.25,113.73,106.24,114.43Z"/><path class="cls-3" d="M147.18,158.62a.44.44,0,0,1-.45.42l-7,0h-.07a.44.44,0,0,1-.44-.44V135a.44.44,0,0,1,.44-.43.43.43,0,0,1,.43.44l0,23.17,6.64,0A.43.43,0,0,1,147.18,158.62Z"/><path class="cls-3" d="M150.09,135v23.6a.44.44,0,0,1-.88,0V135a.44.44,0,0,1,.44-.44A.44.44,0,0,1,150.09,135Z"/><path class="cls-3" d="M164.4,159a.47.47,0,0,1-.57-.28L155,137.2l0,21.41a.44.44,0,0,1-.45.43.43.43,0,0,1-.43-.45V135a.43.43,0,0,1,.85-.1.16.16,0,0,1,0,.07l8.94,21.67,0-21.53a.44.44,0,0,1,.88,0V158.6A.42.42,0,0,1,164.4,159Z"/><path class="cls-3" d="M178.23,143.28a17.33,17.33,0,0,1-2.42,8.93,22.63,22.63,0,0,1-6.28,6.78l-.07,0h0l-.12,0h-.14a.45.45,0,0,1-.36-.41c-.15-2.69-.12-16-.1-21.44,0-1,0-1.78,0-2.14,0-.53.59-.49.76-.46a9.24,9.24,0,0,1,6.25,2.43A8.36,8.36,0,0,1,178.23,143.28Zm-.88,0a7.52,7.52,0,0,0-2.2-5.61,8.13,8.13,0,0,0-5.53-2.21h0c0,.42,0,1,0,1.75,0,5.05,0,16.71.07,20.58a21.56,21.56,0,0,0,5.38-6A16.28,16.28,0,0,0,177.35,143.29Z"/><path class="cls-3" d="M190.75,158.59a.44.44,0,0,1-.42.46c-1.57.06-6.05.06-8,0h-.8c-.24,0-.34-.11-.37-.25a.47.47,0,0,1-.06-.21c.05-4.08,0-16.21,0-21.38v-2.14s0,0,0-.05a.42.42,0,0,1,.41-.55l8.78.1a.44.44,0,0,1,.41.46.44.44,0,0,1-.46.42L182,135.4v1.85c0,3.82,0,11.46,0,16.83h6.71a.45.45,0,0,1,.42.46.44.44,0,0,1-.46.42H182c0,1.28,0,2.4,0,3.26h.36c1.9,0,6.36,0,7.92-.05A.44.44,0,0,1,190.75,158.59Z"/><path class="cls-3" d="M39.87,77.1A17.33,17.33,0,0,1,37.45,86a22.63,22.63,0,0,1-6.28,6.78l-.07,0h0a.53.53,0,0,1-.12,0h-.14a.45.45,0,0,1-.36-.41c-.15-2.69-.12-16-.1-21.44,0-1,0-1.78,0-2.14,0-.53.6-.49.77-.46a9.24,9.24,0,0,1,6.25,2.43A8.36,8.36,0,0,1,39.87,77.1Zm-.88,0a7.52,7.52,0,0,0-2.2-5.61,8.13,8.13,0,0,0-5.53-2.21h0c0,.42,0,1,0,1.75,0,5,0,16.71.06,20.58a21.27,21.27,0,0,0,5.39-6A16.28,16.28,0,0,0,39,77.11Z"/><path class="cls-3" d="M51.67,80.66c0,6.86-2.11,12.24-4.8,12.24s-4.8-5.38-4.8-12.24,2.11-12.24,4.8-12.24S51.67,73.8,51.67,80.66Zm-.9,0c0-6.68-2.06-11.34-3.9-11.34S43,74,43,80.66,45,92,46.87,92,50.77,87.34,50.77,80.66Z"/><path class="cls-3" d="M62.86,92.44a.44.44,0,0,1-.45.42l-7,0h-.07a.44.44,0,0,1-.44-.44l0-23.62a.45.45,0,0,1,.45-.43.44.44,0,0,1,.43.44V92l6.64,0A.44.44,0,0,1,62.86,92.44Z"/><path class="cls-3" d="M71.43,92.29a.44.44,0,0,1-.38.49c-3.45.44-5.39-.49-6.51-2.17-1.53-2.31-1.43-6.2-1.49-10.22-.07-4.42.15-7.82,1.57-9.83,1.15-1.63,3.08-2.43,6.29-2.08a.45.45,0,0,1,.39.49.45.45,0,0,1-.49.39c-2.78-.3-4.48.29-5.48,1.71C64,73,63.86,76.2,63.92,80.37c.06,3.83-.1,7.55,1.35,9.75,1,1.46,2.68,2.17,5.67,1.79A.44.44,0,0,1,71.43,92.29Z"/><path class="cls-3" d="M83.12,92.41a.44.44,0,0,1-.42.46c-1.57.06-6,.06-8,0h-.8c-.24,0-.34-.11-.37-.25a.37.37,0,0,1-.06-.21c0-4.08,0-16.21,0-21.38V68.93a.09.09,0,0,1,0-.05.45.45,0,0,1,0-.11.44.44,0,0,1,.44-.44l8.77.1a.44.44,0,0,1,.42.46.44.44,0,0,1-.46.42l-8.28-.09c0,.41,0,1,0,1.85,0,3.83,0,11.46,0,16.83h6.71a.45.45,0,0,1,.42.46.44.44,0,0,1-.46.42H74.4c0,1.28,0,2.4,0,3.26h.36c1.9,0,6.36,0,7.92-.05A.44.44,0,0,1,83.12,92.41Z"/><path class="cls-3" d="M90.44,82.39c-2.17,0-4.77,0-6.35,0a.46.46,0,0,1,0-.91h0c2.25,0,6.63.08,8.79,0h0a.45.45,0,0,1,0,.9Z"/></g></svg>