<svg id="Layer_1" data-name="Layer 1" xmlns="http://www.w3.org/2000/svg" width="216.54" height="216.54" viewBox="0 0 216.54 216.54"><defs><style>.cls-1{fill:#fef4a8;}.cls-2{fill:#c7e1c1;}.cls-3{fill:#f299c1;}</style></defs><g id="Layer_8" data-name="Layer 8"><circle class="cls-1" cx="108.27" cy="108.27" r="108.27"/><path class="cls-2" d="M33.34,126.16a89.68,89.68,0,0,1,3.23-11.73H60c-.1.66-.18,1.32-.3,2q-.57,3.3-1.56,7.36c-1.71,7-.08,45.36,15.44,33.29,7-5.46.94-30.78,8.57-30.31,4.39.28.76,19.23,5.35,19.42,15.65.61,18.61-15.56,18.75-31.77h9c-.69,7.2-.67,13.42,3.38,13.42,10.51,0,10.24-6,8.64-13.42h63.45a12,12,0,0,1,12,12v24.76a12,12,0,0,1-12,12h-156a12,12,0,0,1-12-12V126.43a11.84,11.84,0,0,1,.51-3.44C24.54,131.17,29.11,146.61,33.34,126.16Z" transform="translate(-5.12 -5.12)"/><path class="cls-3" d="M147.17,82.28c6.46,1.63.92,16,7.73,13.06,6-2.65,1.87-20,15.51-21.75,9.06-1.16,18.33-7.49,20.2-10h.14a12,12,0,0,1,12,12v24.77a12,12,0,0,1-12,12H126.83A56,56,0,0,1,125.05,102C124.7,91.11,133.78,78.9,147.17,82.28Z" transform="translate(-5.12 -5.12)"/><path class="cls-3" d="M60.24,112.35H37.35C46.82,88,62.83,87.86,60.24,112.35Z" transform="translate(-5.12 -5.12)"/><path class="cls-3" d="M107.77,82.33c4.33-.52,9.51,9.8,8.75,20.2-.22,3-.66,6.48-1,9.82h-9.26c0-1.87,0-3.74-.1-5.56C105.74,93.89,104.5,82.72,107.77,82.33Z" transform="translate(-5.12 -5.12)"/><path class="cls-3" d="M127.3,114.43h-12c.07-.69.14-1.39.22-2.08h11.33C127,113.05,127.16,113.74,127.3,114.43Z" transform="translate(-5.12 -5.12)"/><path class="cls-3" d="M27.62,64.6c9-3.08,19.32-.78,60.56-1.67,19.16-.42,102.78-.07,102.78-.07a1.39,1.39,0,0,1-.35.72H34.71a12,12,0,0,0-12,12v24.77a12,12,0,0,0,12,12h2.64c-.26.67-.53,1.36-.78,2.08H34.71A12,12,0,0,0,23.22,123a26,26,0,0,1-.38-3.3C22.23,100.78,18.93,67.58,27.62,64.6Z" transform="translate(-5.12 -5.12)"/><path class="cls-3" d="M106.24,114.43H60c.1-.72.18-1.41.25-2.08h46C106.24,113,106.25,113.73,106.24,114.43Z" transform="translate(-5.12 -5.12)"/></g></svg>