<svg xmlns="http://www.w3.org/2000/svg" width="170.586" height="143.112" viewBox="0 0 170.586 143.112">
  <g id="Group_27" data-name="Group 27" transform="translate(-52.207 -56.29)">
    <g id="Group_20" data-name="Group 20" transform="translate(20.793 -621.777)">
      <line id="Line_1" data-name="Line 1" x2="170.586" transform="translate(31.414 743.314)" fill="none" stroke="#ffa1b8" stroke-width="25" opacity="0.84"/>
      <line id="Line_2" data-name="Line 2" x2="170.586" transform="translate(31.414 808.679)" fill="none" stroke="#ffa1b8" stroke-width="25" opacity="0.84"/>
      <line id="Line_3" data-name="Line 3" x2="170.586" transform="translate(31.414 775.997)" fill="none" stroke="#ffa1b8" stroke-width="25" opacity="0.84"/>
      <g id="Group_1" data-name="Group 1" transform="translate(92.701 679.875)">
        <path id="Path_1" data-name="Path 1" d="M0,21.128C9.845-3.451,34.412.19,34.412.19" transform="translate(0 18.414) rotate(-21)" fill="none" stroke="#7a4d43" stroke-width="5"/>
        <path id="Path_2" data-name="Path 2" d="M0,24.026C10.415-3.924,36.4.216,36.4.216" transform="matrix(0.574, -0.819, 0.819, 0.574, 15.418, 29.818)" fill="none" stroke="#7a4d43" stroke-width="5"/>
      </g>
      <g id="Ellipse_1" data-name="Ellipse 1" transform="translate(84.736 715.315)" fill="#990d42" stroke="#6c0a2f" stroke-width="2">
        <ellipse cx="17" cy="14" rx="17" ry="14" stroke="none"/>
        <ellipse cx="17" cy="14" rx="16" ry="13" fill="none"/>
      </g>
      <g id="Ellipse_2" data-name="Ellipse 2" transform="translate(108.736 715.315)" fill="#990d42" stroke="#6c0a2f" stroke-width="2">
        <ellipse cx="16.5" cy="14" rx="16.5" ry="14" stroke="none"/>
        <ellipse cx="16.5" cy="14" rx="15.5" ry="13" fill="none"/>
      </g>
    </g>
  </g>
</svg>
