<svg xmlns="http://www.w3.org/2000/svg" width="225.827" height="184.84" viewBox="0 0 225.827 184.84">
  <g id="Group_28" data-name="Group 28" transform="translate(-53 -57.05)">
    <g id="Group_21" data-name="Group 21" transform="translate(53 58.875)">
      <line id="Line_4" data-name="Line 4" x2="225.827" transform="translate(0 83.983)" fill="none" stroke="#fff6a6" stroke-width="25" opacity="0.84"/>
      <line id="Line_5" data-name="Line 5" x2="225.827" transform="translate(0 170.515)" fill="none" stroke="#fff6a6" stroke-width="25" opacity="0.84"/>
      <line id="Line_6" data-name="Line 6" x2="225.827" transform="translate(0 127.249)" fill="none" stroke="#fff6a6" stroke-width="25" opacity="0.84"/>
      <g id="Group_1" data-name="Group 1" transform="translate(81.133 0)">
        <path id="Path_1" data-name="Path 1" d="M0,27.97C13.034-4.569,45.556.252,45.556.252" transform="translate(0 24.377) rotate(-21)" fill="none" stroke="#7a4d43" stroke-width="5"/>
        <path id="Path_2" data-name="Path 2" d="M0,31.806C13.787-5.2,48.189.286,48.189.286" transform="matrix(0.574, -0.819, 0.819, 0.574, 20.411, 39.474)" fill="none" stroke="#7a4d43" stroke-width="5"/>
      </g>
      <g id="Ellipse_1" data-name="Ellipse 1" transform="translate(70.589 46.916)" fill="#990d42" stroke="#6c0a2f" stroke-width="2">
        <ellipse cx="22.505" cy="18.534" rx="22.505" ry="18.534" stroke="none"/>
        <ellipse cx="22.505" cy="18.534" rx="21.505" ry="17.534" fill="none"/>
      </g>
      <g id="Ellipse_2" data-name="Ellipse 2" transform="translate(102.361 46.916)" fill="#990d42" stroke="#6c0a2f" stroke-width="2">
        <ellipse cx="21.843" cy="18.534" rx="21.843" ry="18.534" stroke="none"/>
        <ellipse cx="21.843" cy="18.534" rx="20.843" ry="17.534" fill="none"/>
      </g>
      <line id="Line_10" data-name="Line 10" x2="225.827" transform="translate(0 83.983)" fill="none" stroke="#fff6a6" stroke-width="25" opacity="0.84"/>
      <line id="Line_11" data-name="Line 11" x2="225.827" transform="translate(0 170.515)" fill="none" stroke="#fff6a6" stroke-width="25" opacity="0.84"/>
      <line id="Line_12" data-name="Line 12" x2="225.827" transform="translate(0 127.249)" fill="none" stroke="#fff6a6" stroke-width="25" opacity="0.84"/>
      <g id="Group_6" data-name="Group 6" transform="translate(81.133 0)">
        <path id="Path_1-2" data-name="Path 1" d="M0,27.97C13.034-4.569,45.556.252,45.556.252" transform="translate(0 24.377) rotate(-21)" fill="none" stroke="#7a4d43" stroke-width="5"/>
        <path id="Path_2-2" data-name="Path 2" d="M0,31.806C13.787-5.2,48.189.286,48.189.286" transform="matrix(0.574, -0.819, 0.819, 0.574, 20.411, 39.474)" fill="none" stroke="#7a4d43" stroke-width="5"/>
      </g>
      <g id="Ellipse_5" data-name="Ellipse 5" transform="translate(70.589 46.916)" fill="#990d42" stroke="#6c0a2f" stroke-width="2">
        <ellipse cx="22.505" cy="18.534" rx="22.505" ry="18.534" stroke="none"/>
        <ellipse cx="22.505" cy="18.534" rx="21.505" ry="17.534" fill="none"/>
      </g>
      <g id="Ellipse_6" data-name="Ellipse 6" transform="translate(102.361 46.916)" fill="#990d42" stroke="#6c0a2f" stroke-width="2">
        <ellipse cx="21.843" cy="18.534" rx="21.843" ry="18.534" stroke="none"/>
        <ellipse cx="21.843" cy="18.534" rx="20.843" ry="17.534" fill="none"/>
      </g>
    </g>
  </g>
</svg>
