<svg xmlns="http://www.w3.org/2000/svg" width="70mm" height="40mm" viewBox="0 0 198.43 113.39"><defs><style>.cls-1{fill:#c7e1c1;}.cls-2{fill:#f299c1;}.cls-3{fill:#991636;}</style></defs><g id="Layer_8" data-name="Layer 8"><path class="cls-1" d="M20.31,69.89a89.27,89.27,0,0,1,3.24-11.73H47c-.09.67-.18,1.32-.3,2-.38,2.2-.89,4.64-1.55,7.35-1.71,7-.09,45.37,15.43,33.3,7-5.46,1-30.78,8.58-30.31,4.39.27.75,19.23,5.35,19.41,15.64.62,18.6-15.55,18.75-31.77h9c-.7,7.21-.67,13.43,3.37,13.43,10.51,0,10.24-6.06,8.65-13.43h63.45a12,12,0,0,1,12,12V94.93a12,12,0,0,1-12,12h-156a12,12,0,0,1-12-12V70.16a11.81,11.81,0,0,1,.51-3.43C11.52,74.91,16.08,90.35,20.31,69.89Z"/><path class="cls-2" d="M134.15,26c6.46,1.63.92,16,7.73,13.06,6.05-2.64,1.87-20,15.51-21.74,9.06-1.17,18.33-7.5,20.2-10h.14a12,12,0,0,1,12,12V44.08a12,12,0,0,1-12,12H113.81A55.86,55.86,0,0,1,112,45.74C111.68,34.85,120.76,22.63,134.15,26Z"/><path class="cls-2" d="M47.21,56.08H24.33C33.8,31.73,49.81,31.6,47.21,56.08Z"/><path class="cls-2" d="M94.75,26.06c4.33-.52,9.51,9.81,8.75,20.21-.22,3-.66,6.48-1,9.81H93.21c0-1.87,0-3.73-.09-5.56C92.72,37.63,91.48,26.46,94.75,26.06Z"/><path class="cls-2" d="M114.28,58.16h-12c.06-.68.14-1.38.22-2.08h11.33C114,56.78,114.13,57.48,114.28,58.16Z"/><path class="cls-2" d="M14.6,8.34c9-3.09,19.32-.78,60.56-1.68,19.16-.41,102.77-.06,102.77-.06a1.44,1.44,0,0,1-.34.72H21.68a12,12,0,0,0-12,12V44.08a12,12,0,0,0,12,12h2.65c-.27.68-.53,1.37-.78,2.08H21.68a12.06,12.06,0,0,0-11.49,8.57,30.32,30.32,0,0,1-.38-3.3C9.21,44.51,5.91,11.32,14.6,8.34Z"/><path class="cls-2" d="M93.22,58.16H47c.1-.71.18-1.4.25-2.08h46C93.22,56.78,93.23,57.47,93.22,58.16Z"/><path class="cls-3" d="M134.16,102.36a.44.44,0,0,1-.46.42l-7,0h-.07a.44.44,0,0,1-.44-.43l0-23.62a.44.44,0,1,1,.88,0v23.17l6.64,0A.44.44,0,0,1,134.16,102.36Z"/><path class="cls-3" d="M137.07,78.76v23.61a.43.43,0,0,1-.43.44.44.44,0,0,1-.44-.43V78.75a.44.44,0,0,1,.45-.43A.44.44,0,0,1,137.07,78.76Z"/><path class="cls-3" d="M151.37,102.76a.45.45,0,0,1-.56-.29l-8.88-21.53v21.41a.44.44,0,1,1-.87,0l0-23.62a.44.44,0,0,1,.44-.44.43.43,0,0,1,.42.33s0,.05,0,.08l8.93,21.67V78.82a.44.44,0,0,1,.44-.44.45.45,0,0,1,.44.45v23.51A.43.43,0,0,1,151.37,102.76Z"/><path class="cls-3" d="M165.2,87a17.19,17.19,0,0,1-2.42,8.92,22.45,22.45,0,0,1-6.28,6.79l-.06,0h0l-.11,0h-.14a.42.42,0,0,1-.36-.41c-.15-2.69-.12-15.95-.1-21.43,0-1,0-1.78,0-2.14,0-.54.59-.49.77-.47a9.27,9.27,0,0,1,6.25,2.44A8.31,8.31,0,0,1,165.2,87Zm-.87,0a7.5,7.5,0,0,0-2.21-5.61,8.13,8.13,0,0,0-5.53-2.21h0c0,.41,0,1,0,1.74,0,5.06-.05,16.72.06,20.59a21.57,21.57,0,0,0,5.39-6A16.41,16.41,0,0,0,164.33,87Z"/><path class="cls-3" d="M177.73,102.33a.44.44,0,0,1-.42.46c-1.57.06-6.06.06-8,0h-.8c-.24,0-.35-.11-.37-.25a.43.43,0,0,1-.06-.22c0-4.07,0-16.2,0-21.37,0-1,0-1.78,0-2.14a.13.13,0,0,0,0-.06.3.3,0,0,1,0-.1.44.44,0,0,1,.44-.44l8.77.1a.44.44,0,0,1,.42.46.43.43,0,0,1-.46.41L169,79.13V81c0,3.82,0,11.46,0,16.83h6.71a.44.44,0,0,1,.42.46.45.45,0,0,1-.46.42H169c0,1.29,0,2.41,0,3.26h.36c1.9,0,6.36,0,7.92,0A.44.44,0,0,1,177.73,102.33Z"/><path class="cls-3" d="M26.84,20.84a17.19,17.19,0,0,1-2.42,8.92,22.45,22.45,0,0,1-6.28,6.79l-.07,0h0l-.11,0H17.8a.42.42,0,0,1-.36-.41c-.15-2.69-.12-16-.1-21.43,0-1,0-1.78,0-2.14,0-.54.59-.49.77-.47a9.21,9.21,0,0,1,6.25,2.44A8.31,8.31,0,0,1,26.84,20.84Zm-.87,0a7.5,7.5,0,0,0-2.21-5.61A8.13,8.13,0,0,0,18.23,13h0c0,.41,0,1,0,1.74,0,5.06,0,16.72.06,20.58a21.35,21.35,0,0,0,5.38-6A16.31,16.31,0,0,0,26,20.85Z"/><path class="cls-3" d="M38.65,24.4c0,6.86-2.11,12.23-4.8,12.23s-4.8-5.37-4.8-12.23,2.1-12.24,4.8-12.24S38.65,17.53,38.65,24.4Zm-.9,0c0-6.68-2.06-11.34-3.9-11.34S30,17.71,30,24.4,32,35.73,33.85,35.73,37.75,31.08,37.75,24.4Z"/><path class="cls-3" d="M49.84,36.18a.44.44,0,0,1-.46.42l-7,0h-.07a.44.44,0,0,1-.45-.43V12.56a.44.44,0,1,1,.88,0V35.74l6.64,0A.44.44,0,0,1,49.84,36.18Z"/><path class="cls-3" d="M58.4,36a.44.44,0,0,1-.38.49c-3.45.44-5.39-.49-6.5-2.17C50,32,50.09,28.14,50,24.12c-.07-4.41.15-7.82,1.57-9.83,1.16-1.63,3.08-2.42,6.29-2.07a.43.43,0,0,1,.39.48.44.44,0,0,1-.48.4c-2.78-.31-4.48.29-5.48,1.71-1.34,1.89-1.48,5.12-1.41,9.3.06,3.83-.11,7.54,1.35,9.75,1,1.45,2.67,2.16,5.66,1.78A.45.45,0,0,1,58.4,36Z"/><path class="cls-3" d="M70.09,36.15a.44.44,0,0,1-.42.45c-1.57.07-6.05.07-8,0h-.8c-.25,0-.35-.11-.37-.25a.35.35,0,0,1-.06-.22c.05-4.07,0-16.21,0-21.37V12.67s0,0,0-.06a.3.3,0,0,1,0-.1.44.44,0,0,1,.44-.44l8.77.1a.44.44,0,1,1,0,.87L61.37,13V14.8c0,3.83,0,11.47,0,16.84h6.71a.43.43,0,0,1,.41.46.44.44,0,0,1-.45.42H61.38c0,1.29,0,2.41,0,3.26h.35c1.91,0,6.37,0,7.93-.05A.44.44,0,0,1,70.09,36.15Z"/><path class="cls-3" d="M77.42,26.13c-2.17,0-4.78,0-6.35-.06a.46.46,0,0,1-.45-.46.46.46,0,0,1,.46-.44h0c2.26,0,6.64.08,8.8,0h0a.45.45,0,0,1,0,.9Z"/></g></svg>